{"title":"The Jacket (2005) [DvdRip] [Xvid] {1337x}-Noir","uid":4429670,"size":741168961,"categoryP":"video","categoryS":"movies","magnet":"?xt=urn:btih:78f5c14bf25cb79c7840849eccb04463f5158e4a&amp;dn=The+Jacket+%282005%29+%5BDvdRip%5D+%5BXvid%5D+%7B1337x%7D-Noir&amp;tr=udp%3A%2F%2Ftracker.openbittorrent.com%3A80&amp;tr=udp%3A%2F%2Fopen.demonii.com%3A1337&amp;tr=udp%3A%2F%2Ftracker.coppersurfer.tk%3A6969&amp;tr=udp%3A%2F%2Fexodus.desync.com%3A6969","seeders":1,"leechers":0,"uploader":"INoirI","files":3,"time":1223220730,"description":"Screenshots\n &lt;a href=&quot;\nhttp://i220.photobucket.com/albums/dd94/ItheplagueI/3-10.jpg&quot; rel=&quot;nofollow&quot; target=&quot;_NEW&quot;&gt;\nhttp://i220.photobucket.com/albums/dd94/ItheplagueI/3-10.jpg&lt;/a&gt;\n &lt;a href=&quot;\nhttp://i220.photobucket.com/albums/dd94/ItheplagueI/4-10.jpg&quot; rel=&quot;nofollow&quot; target=&quot;_NEW&quot;&gt;\nhttp://i220.photobucket.com/albums/dd94/ItheplagueI/4-10.jpg&lt;/a&gt;\n &lt;a href=&quot;\nhttp://i220.photobucket.com/albums/dd94/ItheplagueI/2-14.jpg&quot; rel=&quot;nofollow&quot; target=&quot;_NEW&quot;&gt;\nhttp://i220.photobucket.com/albums/dd94/ItheplagueI/2-14.jpg&lt;/a&gt;\n &lt;a href=&quot;\nhttp://i220.photobucket.com/albums/dd94/ItheplagueI/1-17.jpg&quot; rel=&quot;nofollow&quot; target=&quot;_NEW&quot;&gt;\nhttp://i220.photobucket.com/albums/dd94/ItheplagueI/1-17.jpg&lt;/a&gt;\n                                \n\n\n\n\n                     **********************\n                     * The Jacket  (2005) *\n                     **********************\n\n________________________\n   General Information  |  \n________________________|\n_______________________________________________________________\nType                    : Movie                                \nFormat                  : AVI                                  \nFormat/Info             : Audio Video Interleave               \nFile size               : 707Mb                                \nDuration                : 1h 43mn                              \nLanguage                : English                              \nSubtitles               : None                                 \nSource                  : Dvd NTSC                             \nGenre                   : Fantasy | Horror | Sci-Fi | Thriller                   \nIMDB Link               : http://www.imdb.com/title/tt0366627/ \nRating                  : 7.0/10                               \n_______________________________________________________________\n________________________________________________________________\nVideo\nFormat                           : MPEG-4 Visual\nFormat profile                   : Streaming Video@L1\nFormat settings, BVOP            : Yes\nFormat settings, QPel            : No\nFormat settings, GMC             : No warppoints\nFormat settings, Matrix          : Default\nMuxing mode                      : Packed bitstream\nCodec ID                         : DX50/60 | Xvid 1.2.0\nCodec ID/Hint                    : DivX 5\nDuration                         : 1h 43mn\nBit rate                         : 821 Kbps\nWidth                            : 672 pixels\nHeight                           : 272 pixels\nDisplay aspect ratio             : 2.35\nFrame rate                       : 23.976 fps\nResolution                       : 24 bits\nColorimetry                      : 4:2:0\nScan type                        : Progressive\nBits/(Pixel*Frame)               : 0.187\nStream size                      : 606 MiB (86%)\nWriting library                  : XviD 1.2.0.dev47            \n_______________________________________________________________\nAudio\nFormat                           : MPEG Audio\nFormat version                   : Version 1\nFormat profile                   : Layer 3\nCodec ID                         : 55\nCodec ID/Hint                    : MP3\nDuration                         : 1h 43mn\nBit rate mode                    : Constant\nBit rate                         : 128 Kbps\nChannel(s)                       : 2 channels\nSampling rate                    : 48.0 KHz\nResolution                       : 16 bits\nStream size                      : 94.4 MiB (13%)\nAlignment                        : Aligned on interleaves\nInterleave, duration             : 42 ms (1.00 video frame)\nInterleave, preload duration     : 504 ms                       \n_______________________________________________________________\n________________\n   Description  \n________________\n_______________________________________________________________\nThe film centers on a wounded Gulf war veteran who returns to \nhis native Vermont suffering from bouts of amnesia. He is \nhitching and gets picked up by a stranger, things go pear \nshaped when a cop pulls them over and is murdered by the \nstranger. The vet. is wrongly accused of killing the cop \nand lands up in an asylum. A quack doctor prescribes a course \nof experimental therapy, restraining him in a heavy duty \nstraight jacket-like device, and locks him away in a body \ndrawer of the basement morgue. During course of his treatment \nhe gets flashbacks and visions of his future , where he can \nforesee he is to die in four days time. The catch is he \ndoesn't know how. Thus commences the classic race against time                                                        \n_______________________________________________________________\n\n___________________\nNotes              \n___________________\n_______________________________________________________________\nBe aware People are starting to use my tag to create fake files\nMake sure its a real genuine release from me, I have never and \nwill never do Cams,Telesyncs,Telecine. I have never and will   \nnever do Rar files. Try to check 1337x.org to see if the file  \nexist. Fuck the fakers and enjoy my release.                   \n_______________________________________________________________\n___________________\n  Post Information \n___________________\n_________________________________\nPosted by............: Noir     \nPosted on............: 10/05/2008\n_________________________________","torrent":{"xt":"urn:btih:78f5c14bf25cb79c7840849eccb04463f5158e4a","amp;dn":"The+Jacket+%282005%29+%5BDvdRip%5D+%5BXvid%5D+%7B1337x%7D-Noir","amp;tr":["udp%3A%2F%2Ftracker.openbittorrent.com%3A80","udp%3A%2F%2Fopen.demonii.com%3A1337","udp%3A%2F%2Ftracker.coppersurfer.tk%3A6969","udp%3A%2F%2Fexodus.desync.com%3A6969"],"infoHash":"78f5c14bf25cb79c7840849eccb04463f5158e4a","infoHashBuffer":{"type":"Buffer","data":[120,245,193,75,242,92,183,156,120,64,132,158,204,176,68,99,245,21,142,74]},"announce":[],"urlList":[]}}